<?xml version="1.0" encoding="UTF-8"?>
<svg id="Layer_1" data-name="Layer 1" xmlns="http://www.w3.org/2000/svg" viewBox="0 0 43 100">
  <defs>
    <style>
      .cls-1 {
        fill: #6b6b6b;
      }

      .cls-2 {
        opacity: .5;
      }
    </style>
  </defs>
  <g class="cls-2">
    <path class="cls-1" d="M34.77,80.53c-2.28-.07-4.56-.15-6.84-.18-3.52-.05-7.04-.09-10.56-.06-3.62,.03-7.23,.13-10.84,.23-.81,.02-1.85,.99-2.04,1.75-.2,.82,.18,1.7,.96,2.28,.84,.63,1.79,.79,2.81,.78,4.22-.02,8.45,0,12.68,0,0,0,0-.02,0-.03,1.21,0,2.43,.01,3.64,0,3.06-.04,6.12-.12,9.18-.1,.99,0,1.73-.27,2.37-.99,.57-.64,.98-1.39,.62-2.18-.35-.79-.96-1.48-1.97-1.51Z"/>
    <path class="cls-1" d="M33.56,57.69c-.1-4.42-2.69-7.81-6.88-9.2-1.35-.45-2.74-.77-4.17-1.17v-10.24c2.64,.56,4.4,1.91,4.97,4.51,.24,1.07,.93,1.66,1.89,1.9,1.97,.5,4.07-.25,3.47-3.19-.67-3.27-2.51-5.72-5.46-7.22-1.46-.74-3.09-1.16-4.75-1.77,0-.91,.03-2.02-.02-3.13-.02-.41-.14-.87-.38-1.19-.5-.66-1.54-.82-2.4-.48-.84,.34-1.06,.69-1.06,1.76,0,1.08,0,2.17,0,3.24-.53,.08-1.04,.12-1.53,.22-5.11,1.07-8.95,5.41-8.66,10.67,.22,3.87,1.92,6.89,5.58,8.51,1.45,.64,3.01,1.02,4.64,1.57v10.61c-1.9-.23-3.45-1.02-4.4-2.7-.44-.79-.72-1.69-1-2.55-.27-.85-.77-1.42-1.67-1.47-.64-.04-1.31-.03-1.93,.13-1.36,.35-2.03,1.77-1.63,3.43,1.12,4.64,4.16,7.35,8.7,8.5,.6,.15,1.23,.23,1.91,.35,0,1.31-.02,2.6,0,3.88,.02,1.05,.87,1.75,1.92,1.57,.45-.08,.91-.22,1.29-.45,.26-.16,.51-.54,.53-.83,.05-1.4,.02-2.81,.02-4.15,1.06-.21,2.1-.35,3.09-.62,4.66-1.3,8.02-5.67,7.91-10.48Zm-14.73-11.35c-2.1,.09-4.69-2.11-4.73-4.58-.04-2.39,2.06-4.53,4.73-4.77v9.35Zm3.7,16.98v-9.93c1.93-.14,4.69,1.65,5.08,4.11,.45,2.83-1.45,5.14-5.08,5.81Z"/>
    <path class="cls-1" d="M37.48,86.01c2.77-1.65,2.79-4.8,.05-6.51-.14-.09-.28-.19-.43-.29-.25-.18-.24-.56,.02-.73,.21-.13,.39-.26,.58-.39,1.12-.81,1.91-1.82,1.81-3.28-.18-2.57-2.42-4.24-4.83-3.9-.22,.03-.38,.22-.38,.44v1.78c0,.25,.21,.45,.46,.44,.32-.01,.64-.01,.96,0,.94,.02,1.35,.65,1.15,1.6-.29,1.39-1.8,2.61-3.29,2.6-3.86-.03-7.72-.13-11.58-.13-4.66,0-9.32,.09-13.99,.15-1.42,.02-2.46-.68-3.24-1.77-.74-1.03-.22-2.47,1.04-2.62,.22-.03,.45-.03,.68-.03,.25,0,.46-.19,.46-.44v-1.7c0-.23-.17-.42-.4-.44-.21-.02-.42-.02-.64-.01-1.56,.06-3.23,1.26-3.78,2.76-.57,1.58-.17,2.91,1.26,4.13,.33,.28,.69,.54,1.02,.82,0,0,0,0,0,0,.24,.2,.19,.58-.09,.73-1.42,.73-2.44,1.78-2.4,3.44,.04,1.61,.95,2.73,2.37,3.5,.29,.16,.3,.56,.04,.75-.18,.13-.36,.25-.53,.36-.96,.59-1.49,1.4-1.44,2.58,.13,3.18,1.53,5.64,4.24,7.28,2.51,1.51,5.62,1.22,7.72-.66,.29-.26,.53-.58,.79-.91,.18-.24,.54-.23,.71,0,1.21,1.72,2.86,2.71,5.02,2.6,2.07-.1,3.84-.87,5.02-2.63,.17-.26,.54-.27,.73-.02,.01,.02,.03,.04,.04,.06,1.86,2.49,4.4,3.27,7.26,2.03,3.05-1.33,4.74-3.75,5.13-7.05,.16-1.35-.07-2.57-1.33-3.38-.14-.09-.28-.18-.42-.28-.27-.18-.26-.59,.02-.75,.07-.04,.13-.08,.19-.11Zm-5.61,10.14c-1.94,0-3.58-.97-4.16-2.31l-.33-.39c-.52-.63-1.48-.62-1.99,.02l-.3,.38c-.58,1.34-2.22,2.31-4.16,2.31s-3.58-.97-4.16-2.31l-.4-.47c-.51-.6-1.43-.6-1.95,0l-.41,.47c-.58,1.34-2.22,2.31-4.16,2.31-2.42,0-4.39-1.51-4.39-3.37,0-.58,.52-1.77,.52-1.86,0-1.61,1.31-2.92,2.92-2.92h24.07c1.61,0,2.92,1.31,2.92,2.92,0,.15,.37,1.35,.37,1.86,0,1.86-1.96,3.37-4.39,3.37Zm4.26-11.94c-.64,.72-1.38,1-2.37,.99-3.06-.02-6.12,.06-9.18,.1-1.21,.01-2.43,0-3.64,0,0,0,0,.02,0,.03-4.23,0-8.45-.01-12.68,0-1.03,0-1.97-.16-2.81-.78-.78-.58-1.16-1.45-.96-2.28,.18-.76,1.22-1.73,2.04-1.75,3.61-.1,7.23-.21,10.84-.23,3.52-.03,7.04,.02,10.56,.06,2.28,.03,4.56,.11,6.84,.18,1.01,.03,1.62,.72,1.97,1.51,.35,.79-.05,1.54-.62,2.18Z"/>
    <path class="cls-1" d="M3.88,35.45c.72-.05,.9-.52,.88-1.16-.02-.63-.01-1.26,.02-1.89,.1-2.35,.69-4.57,1.85-6.63,.95-1.68,2.08-3.22,3.53-4.51,1.14-1.02,2.3-2.02,3.44-3.04,.98-.87,1.89-1.76,1.81-3.24-.02-.47,.12-.94,.21-1.52h10.2c.03,.26,.11,.59,.08,.91-.11,1.45,.45,2.59,1.53,3.52,1.47,1.27,2.97,2.5,4.37,3.84,2.71,2.58,4.39,5.71,4.73,9.48,.11,1.18,0,2.37,.05,3.56,.02,.35,.21,.85,.48,.99,.85,.43,1.91-.19,1.98-1.13,.07-.84,0-1.7-.02-2.54-.15-4.72-2.03-8.69-5.4-11.94-1.34-1.3-2.78-2.5-4.2-3.7-.92-.77-1.29-1.71-1.12-2.92,.7,.12,.87-.23,.81-.83-.04-.43,0-.86,0-1.34H12.35c-.03,.73-.06,1.4-.09,2.12,.27,.02,.5,.04,.73,.06,.17,1.31-.03,2.38-1.19,3.21-.92,.66-1.72,1.5-2.53,2.3-1.83,1.81-3.64,3.63-4.86,5.95-1.53,2.91-2.16,6-1.98,9.27,.04,.71,.68,1.25,1.45,1.19Z"/>
    <path class="cls-1" d="M12.36,9.92H29c0-1.72,.05-3.39-.01-5.06-.05-1.27-.88-2.09-2.15-2.1-3.95-.04-7.91-.05-11.86,0-1.78,.02-2.75,1.2-2.69,2.97,.04,1.14,.02,2.28,.03,3.42,0,.26,.03,.51,.04,.77Z"/>
    <path class="cls-1" d="M36.56,69.77c0,.16,.15,.42,.28,.46,.81,.18,1.96-.29,2.04-1,.15-1.43,.17-2.88,.07-4.31-.04-.67-.88-1.04-1.72-1.02-.59,.02-.88,.2-.83,.74,.09,.92,.12,1.85,.17,2.77,0,0-.02,0-.02,0,0,.78-.02,1.57,.01,2.35Z"/>
    <path class="cls-1" d="M40,52.92c-.02-.95-.35-1.74-.95-2.42-.43-.48-.97-.62-1.58-.56-.64,.06-1.01,.58-.69,1.12,.37,.63,.51,1.25,.51,1.87,0,0,0,0,0,0,0,.03,0,.05,0,.08,0,.03,0,.05,0,.08,0,0,0,0,0,0,0,.62-.13,1.25-.51,1.87-.32,.54,.05,1.06,.69,1.12,.61,.06,1.16-.08,1.58-.56,.6-.68,.93-1.46,.95-2.42h0s0-.06,0-.1,0-.06,0-.1h0Z"/>
    <path class="cls-1" d="M40,59.48c-.02-.95-.35-1.74-.95-2.42-.43-.48-.97-.62-1.58-.56-.64,.06-1.01,.58-.69,1.12,.37,.63,.51,1.25,.51,1.87,0,0,0,0,0,0,0,.03,0,.05,0,.08,0,.03,0,.05,0,.08,0,0,0,0,0,0,0,.62-.13,1.25-.51,1.87-.32,.54,.05,1.06,.69,1.12,.61,.06,1.16-.08,1.58-.56,.6-.68,.93-1.46,.95-2.42h0s0-.06,0-.1,0-.06,0-.1h0Z"/>
    <path class="cls-1" d="M40,46.23c-.02-.95-.35-1.74-.95-2.42-.43-.48-.97-.62-1.58-.56-.64,.06-1.01,.58-.69,1.12,.37,.63,.51,1.25,.51,1.87,0,0,0,0,0,0,0,.03,0,.05,0,.08,0,.03,0,.05,0,.08,0,0,0,0,0,0,0,.62-.13,1.25-.51,1.87-.32,.54,.05,1.06,.69,1.12,.61,.06,1.16-.08,1.58-.56,.6-.68,.93-1.46,.95-2.42h0s0-.06,0-.1,0-.06,0-.1h0Z"/>
    <path class="cls-1" d="M40,39.48h0c-.02-.95-.35-1.74-.95-2.42-.43-.48-.97-.62-1.58-.56-.64,.06-1.01,.58-.69,1.12,.37,.63,.51,1.25,.51,1.87,0,0,0,0,0,0,0,.03,0,.05,0,.08,0,.03,0,.05,0,.08,0,0,0,0,0,0,0,.62-.13,1.25-.51,1.87-.32,.54,.05,1.06,.69,1.12,.61,.06,1.16-.08,1.58-.56,.6-.68,.93-1.46,.95-2.42h0s0-.06,0-.1,0-.06,0-.1Z"/>
    <path class="cls-1" d="M4.64,63.9c-.84-.03-1.68,.34-1.72,1.02-.09,1.43-.08,2.88,.07,4.31,.08,.71,1.23,1.18,2.04,1,.14-.03,.28-.3,.28-.46,.03-.78,.01-1.57,.01-2.35h-.02c.05-.93,.08-1.85,.17-2.77,.05-.54-.24-.73-.83-.74Z"/>
    <path class="cls-1" d="M1.87,53.11c.02,.95,.35,1.74,.95,2.42,.43,.48,.97,.62,1.58,.56,.64-.06,1.01-.58,.69-1.12-.38-.63-.51-1.25-.51-1.87,0,0,0,0,0,0,0-.03,0-.05,0-.08,0-.03,0-.05,0-.08,0,0,0,0,0,0,0-.62,.13-1.25,.51-1.87,.32-.54-.05-1.06-.69-1.12-.61-.06-1.16,.08-1.58,.56-.6,.68-.93,1.46-.95,2.42h0s0,.06,0,.1c0,.03,0,.06,0,.1h0Z"/>
    <path class="cls-1" d="M4.4,62.64c.64-.06,1.01-.58,.69-1.12-.38-.63-.51-1.25-.51-1.87,0,0,0,0,0,0,0-.03,0-.05,0-.08,0-.03,0-.05,0-.08,0,0,0,0,0,0,0-.62,.13-1.25,.51-1.87,.32-.54-.05-1.06-.69-1.12-.61-.06-1.16,.08-1.58,.56-.6,.68-.93,1.46-.95,2.42h0s0,.06,0,.1c0,.03,0,.06,0,.1h0c.02,.95,.35,1.74,.95,2.42,.43,.48,.97,.62,1.58,.56Z"/>
    <path class="cls-1" d="M1.87,46.43c.02,.95,.35,1.74,.95,2.42,.43,.48,.97,.62,1.58,.56,.64-.06,1.01-.58,.69-1.12-.38-.63-.51-1.25-.51-1.87,0,0,0,0,0,0,0-.03,0-.05,0-.08,0-.03,0-.05,0-.08,0,0,0,0,0,0,0-.62,.13-1.25,.51-1.87,.32-.54-.05-1.06-.69-1.12-.61-.06-1.16,.08-1.58,.56-.6,.68-.93,1.46-.95,2.42h0s0,.06,0,.1c0,.03,0,.06,0,.1h0Z"/>
    <path class="cls-1" d="M1.87,39.67c.02,.95,.35,1.74,.95,2.42,.43,.48,.97,.62,1.58,.56,.64-.06,1.01-.58,.69-1.12-.38-.63-.51-1.25-.51-1.87,0,0,0,0,0,0,0-.03,0-.05,0-.08,0-.03,0-.05,0-.08,0,0,0,0,0,0,0-.62,.13-1.25,.51-1.87,.32-.54-.05-1.06-.69-1.12-.61-.06-1.16,.08-1.58,.56-.6,.68-.93,1.46-.95,2.42h0s0,.06,0,.1c0,.03,0,.06,0,.1h0Z"/>
    <path class="cls-1" d="M13.21,29.06c.99,.04,1.72-.61,1.74-1.54,.02-.96-.89-2.04-1.71-2.03-.81,.01-1.77,.94-1.78,1.73-.02,1.01,.73,1.8,1.75,1.84Z"/>
    <path class="cls-1" d="M28.56,29.21c.81,0,1.41-.6,1.41-1.42,0-.67-.67-1.4-1.3-1.42-.77-.02-1.59,.81-1.58,1.59,0,.75,.59,1.25,1.48,1.24Z"/>
    <path class="cls-1" d="M17.71,22.24c-.01-.79-.63-1.44-1.36-1.41-.71,.03-1.25,.66-1.23,1.43,.02,.75,.66,1.3,1.47,1.26,.6-.03,1.13-.64,1.12-1.29Z"/>
    <path class="cls-1" d="M26.79,22.67c-.72,0-1.17,.43-1.18,1.15,0,.62,.48,1.15,1.05,1.14,.57-.01,1.25-.68,1.24-1.21,0-.64-.45-1.06-1.1-1.07Z"/>
  </g>
</svg>